<svg width="56" height="56" viewBox="0 0 56 56" fill="none" xmlns="http://www.w3.org/2000/svg">
<path d="M51.2632 42.7698C51.2632 43.6098 51.0765 44.4732 50.6798 45.3132C50.2832 46.1532 49.7698 46.9465 49.0932 47.6932C47.9498 48.9532 46.6898 49.8632 45.2665 50.4465C43.8665 51.0298 42.3498 51.3332 40.7165 51.3332C38.3365 51.3332 35.7932 50.7732 33.1098 49.6298C30.4265 48.4865 27.7432 46.9465 25.0832 45.0098C22.3998 43.0498 19.8565 40.8798 17.4298 38.4765C15.0265 36.0498 12.8565 33.5065 10.9198 30.8465C9.0065 28.1865 7.4665 25.5265 6.3465 22.8898C5.2265 20.2298 4.6665 17.6865 4.6665 15.2598C4.6665 13.6732 4.9465 12.1565 5.5065 10.7565C6.0665 9.33317 6.95317 8.0265 8.18984 6.85984C9.68317 5.38984 11.3165 4.6665 13.0432 4.6665C13.6965 4.6665 14.3498 4.8065 14.9332 5.0865C15.5398 5.3665 16.0765 5.7865 16.4965 6.39317L21.9098 14.0232C22.3298 14.6065 22.6332 15.1432 22.8432 15.6565C23.0532 16.1465 23.1698 16.6365 23.1698 17.0798C23.1698 17.6398 23.0065 18.1998 22.6798 18.7365C22.3765 19.2732 21.9332 19.8332 21.3732 20.3932L19.5998 22.2365C19.3432 22.4932 19.2265 22.7965 19.2265 23.1698C19.2265 23.3565 19.2498 23.5198 19.2965 23.7065C19.3665 23.8932 19.4365 24.0332 19.4832 24.1732C19.9032 24.9432 20.6265 25.9465 21.6532 27.1598C22.7032 28.3732 23.8232 29.6098 25.0365 30.8465C26.2965 32.0832 27.5098 33.2265 28.7465 34.2765C29.9598 35.3032 30.9632 36.0032 31.7565 36.4232C31.8732 36.4698 32.0132 36.5398 32.1765 36.6098C32.3632 36.6798 32.5498 36.7032 32.7598 36.7032C33.1565 36.7032 33.4598 36.5632 33.7165 36.3065L35.4898 34.5565C36.0732 33.9732 36.6332 33.5298 37.1698 33.2498C37.7065 32.9232 38.2432 32.7598 38.8265 32.7598C39.2698 32.7598 39.7365 32.8532 40.2498 33.0632C40.7632 33.2732 41.2998 33.5765 41.8832 33.9732L49.6065 39.4565C50.2132 39.8765 50.6332 40.3665 50.8898 40.9498C51.1232 41.5332 51.2632 42.1165 51.2632 42.7698Z" stroke="#03A89E" stroke-width="2.5" stroke-miterlimit="10"/>
<path d="M43.1667 20.9997C43.1667 19.5997 42.07 17.453 40.4367 15.703C38.9433 14.093 36.96 12.833 35 12.833" stroke="#03A89E" stroke-width="2.5" stroke-linecap="round" stroke-linejoin="round"/>
<path d="M51.3333 20.9998C51.3333 11.9698 44.03 4.6665 35 4.6665" stroke="#03A89E" stroke-width="2.5" stroke-linecap="round" stroke-linejoin="round"/>
</svg>
