<svg width="35" height="35" viewBox="0 0 35 35" fill="none" xmlns="http://www.w3.org/2000/svg">
<path d="M17.4997 11.6665V2.9165L14.583 5.83317" stroke="#03A89E" stroke-width="1.5" stroke-linecap="round" stroke-linejoin="round"/>
<path d="M17.5 2.9165L20.4167 5.83317" stroke="#03A89E" stroke-width="1.5" stroke-linecap="round" stroke-linejoin="round"/>
<path d="M10.2083 17.5C4.375 17.5 4.375 20.1104 4.375 23.3333V24.7917C4.375 28.8167 4.375 32.0833 11.6667 32.0833H23.3333C29.1667 32.0833 30.625 28.8167 30.625 24.7917V23.3333C30.625 20.1104 30.625 17.5 24.7917 17.5C23.3333 17.5 22.925 17.8063 22.1667 18.375L20.6792 19.95C18.9583 21.7875 16.0417 21.7875 14.3063 19.95L12.8333 18.375C12.075 17.8063 11.6667 17.5 10.2083 17.5Z" stroke="#03A89E" stroke-width="1.5" stroke-miterlimit="10" stroke-linecap="round" stroke-linejoin="round"/>
<path d="M7.29199 17.5V14.5834C7.29199 11.6521 7.29199 9.23127 11.667 8.80835" stroke="#03A89E" stroke-width="1.5" stroke-miterlimit="10" stroke-linecap="round" stroke-linejoin="round"/>
<path d="M27.708 17.5V14.5834C27.708 11.6521 27.708 9.23127 23.333 8.80835" stroke="#03A89E" stroke-width="1.5" stroke-miterlimit="10" stroke-linecap="round" stroke-linejoin="round"/>
</svg>
